<?xml version="1.0" encoding="utf-8"?>
<!-- Generator: Adobe Illustrator 24.0.1, SVG Export Plug-In . SVG Version: 6.00 Build 0)  -->
<svg version="1.1" id="_x33_" xmlns="http://www.w3.org/2000/svg" xmlns:xlink="http://www.w3.org/1999/xlink" x="0px" y="0px"
	 viewBox="0 0 63 65" style="enable-background:new 0 0 63 65;" xml:space="preserve">
	 <defs><style>.cls-3{fill:#b9933b}</style></defs>
<g>
	<path class="cls-3" d="M15.7,48.1c-2.1,0-3.8,1.7-3.8,3.8v6.3h7.7v-6.3C19.5,49.8,17.8,48.1,15.7,48.1z M16.7,55.4h-2.1v-3.5c0-0.6,0.5-1,1-1
		s1,0.5,1,1V55.4z"/>
	<path class="cls-3" d="M48.5,48.1c-2.1,0-3.8,1.7-3.8,3.8v6.3h7.7v-6.3C52.4,49.8,50.7,48.1,48.5,48.1z M49.6,55.4h-2.1v-3.5c0-0.6,0.5-1,1-1
		s1,0.5,1,1V55.4z"/>
	<path class="cls-3" d="M32.1,26.7c-2.1,0-3.8,1.7-3.8,3.8v11.1h7.7V30.5C35.9,28.4,34.2,26.7,32.1,26.7z M33.1,38.8h-2.1v-8.3c0-0.6,0.5-1,1-1
		s1,0.5,1,1V38.8z"/>
	<path class="cls-3" d="M50.3,31.5v9.7h-4.6V14.5H38v4.9h-4.2v-6.7c0.5-0.3,1.2-0.5,1.9-0.5c0.8,0,1.2,0.3,1.8,0.7c0.7,0.5,1.6,1.1,3.1,1.1
		c1.9,0,3.2-1.1,3.3-1.3l1.3-1.2l-1.4-1c-0.7-0.5-1.3-1.1-1.7-1.9c1.1-1.3,2.1-3.4,2.2-4.8l0.4-3.6l-2.7,2.3c0,0-0.7,0.6-1.6,0.6
		c-0.6,0-0.8-0.2-1.4-0.6c-0.7-0.6-1.7-1.3-3.5-1.3c-0.8,0-1.6,0.2-2.3,0.4H31v17.6h-4.8v-4.9h-7.7v26.7l-4.3,0v-9.7H1.5v14.9h1.4
		c0.6,0,1,0.5,1,1l0,3.7c0,4.6,0,10.4,0,12.7l0,1.4l56.3,0.1V47.5c0-0.6,0.5-1,1-1h1.4V31.5H50.3z M37.4,4.9
		c0.7,0.5,1.6,1.2,3.1,1.2c-0.3,0.6-0.7,1-1,1.3L38.9,8l0.3,0.9c0.3,0.8,0.7,1.6,1.3,2.3c-0.5,0-0.8-0.2-1.4-0.6
		c-0.7-0.5-1.7-1.2-3.4-1.2c-0.7,0-1.3,0.1-1.9,0.3v-5c0.5-0.2,1.2-0.5,1.9-0.5C36.5,4.1,36.9,4.4,37.4,4.9z M35.6,62.6l-6.9,0v-8.2
		c0-1.9,1.6-3.5,3.5-3.5s3.5,1.6,3.5,3.5V62.6z M59.9,43.9c-1.4,0.6-2.4,1.9-2.4,3.6v15.1l-19.1,0v-8.2c0-3.5-2.8-6.3-6.3-6.3
		s-6.3,2.8-6.3,6.3v8.2l-19.1,0c0-2.8,0-7.5,0-11.3l0-3.7c0-1.6-1-3-2.4-3.6v-9.6h7.1v9.8l9.9-0.1V17.3h2.1v4.9h17.4v-4.9h2.1V44
		h10.2v-9.7h6.8V43.9z"/>
</g>
</svg>
