<?xml version="1.0" encoding="utf-8"?>
<!-- Generator: Adobe Illustrator 24.0.1, SVG Export Plug-In . SVG Version: 6.00 Build 0)  -->
<svg version="1.1" id="_x34_" xmlns="http://www.w3.org/2000/svg" xmlns:xlink="http://www.w3.org/1999/xlink" x="0px" y="0px"
	 viewBox="0 0 63 65" style="enable-background:new 0 0 63 65;" xml:space="preserve">
	 <defs><style>.cls-4{fill:#b9933b}</style></defs>
<g>
	<path class="cls-4" d="M11.3,58.9h41.1l3.5-9.5h-48L11.3,58.9z M51.8,52.2l-1.4,3.9H13.3l-1.4-3.9H51.8z"/>
	<path class="cls-4" d="M53,21.1h-2l0.7,1.9c2.3,6.2-0.5,15.3-4.4,20.8l-1.6,2.2h11.5l0.4-0.5c3.3-4.2,5.1-8.9,5.1-13.1
		C62.7,25.3,57.8,21.1,53,21.1z M55.8,43.1H51c3.2-5.5,5.3-12.8,4-18.9c2.6,1,4.9,3.8,4.9,8.1C59.9,35.7,58.4,39.6,55.8,43.1z"/>
	<path class="cls-4" d="M33.6,26.1v19.8h7.6l0.4-0.4c5-4.4,8.5-14.2,7.3-20.4c-1-4.9-5.1-7.1-8.6-6.7C36.9,18.8,33.6,21.3,33.6,26.1z M36.4,26.1
		c0-3.3,2.1-4.7,4.1-4.9c2.2-0.2,4.9,1.1,5.6,4.5c1,5.2-1.9,13.5-6,17.4h-3.7V26.1z"/>
	<path class="cls-4" d="M16.4,43.7C12.5,38.3,9.6,29.2,12,23l0.7-1.9h-2C5.9,21.1,1,25.3,1,32.3c0,4.2,1.8,8.8,5.1,13.1l0.4,0.5H18L16.4,43.7z
		 M7.9,43.1c-2.6-3.6-4.1-7.4-4.1-10.8c0-4.3,2.3-7.1,4.9-8.1c-1.3,6.1,0.8,13.5,4,18.9H7.9z"/>
	<path class="cls-4" d="M22.1,45.6l0.4,0.4h7.6V26.1c0-4.9-3.3-7.4-6.6-7.7c-3.6-0.3-7.7,1.8-8.6,6.7C13.7,31.4,17.1,41.2,22.1,45.6z M17.6,25.7
		c0.7-3.4,3.4-4.7,5.6-4.5c2,0.2,4.1,1.6,4.1,4.9v17h-3.7C19.5,39.2,16.6,30.9,17.6,25.7z"/>
	<path class="cls-4" d="M32.8,17.8c3.2,0,5.8-2.6,5.8-5.8c0-3.2-2.6-5.8-5.8-5.8c-3.2,0-5.8,2.6-5.8,5.8C26.9,15.2,29.5,17.8,32.8,17.8z M32.8,8.9
		c1.7,0,3,1.4,3,3c0,1.7-1.4,3-3,3c-1.7,0-3-1.4-3-3C29.7,10.3,31.1,8.9,32.8,8.9z"/>
</g>
</svg>
