<?xml version="1.0" encoding="utf-8"?>
<!-- Generator: Adobe Illustrator 24.0.1, SVG Export Plug-In . SVG Version: 6.00 Build 0)  -->
<svg version="1.1" id="_x35_" xmlns="http://www.w3.org/2000/svg" xmlns:xlink="http://www.w3.org/1999/xlink" x="0px" y="0px"
	 viewBox="0 0 63 65" style="enable-background:new 0 0 63 65;" xml:space="preserve">
	 <defs><style>.cls-5{fill:#b9933b}</style></defs>
<g>
	<path class="cls-5" d="M25,28.4l2.3-1.7c-0.8-1-1.2-2.2-1.4-3.5c-0.5-3.2,0.7-5.8,2-8.6c1.2-2.7,2.6-5.6,2.4-9.3c2.6,1.7,4.5,4.3,5.3,6.4
		c1.4,3.9,1.6,6-1.7,12.4c-1.1,2.2-1.5,4.5-1,6.4l2.7-0.7c-0.3-1.2,0-2.8,0.8-4.4c3.5-6.9,3.5-9.9,1.8-14.7C37,7.4,33.4,3.2,29,1.6
		l-2.4-0.9l0.6,2.5c1,4.1-0.4,7.1-1.9,10.3c-1.4,3-2.8,6.1-2.2,10.1C23.3,25.4,24,27,25,28.4z"/>
	<path class="cls-5" d="M39,24.9l-0.3,2.8c8.7,1,12.7,3.4,12.7,4.8c0,2.1-7.9,5.1-19.8,5.1c-11.9,0-19.8-3.1-19.8-5.1c0-1,2.6-3.1,9.5-4.3
		l-0.5-2.8c-4.4,0.8-11.8,2.7-11.8,7.1v24.2h0c0.1,5.2,11.4,7.9,22.6,7.9s22.5-2.7,22.6-7.9h0V32.5C54.2,27.1,42.6,25.3,39,24.9z
		 M31.7,61.8c-1.9,0-3.7-0.1-5.4-0.2V48.9h-2.8v12.4c-7.2-1-11.6-3.1-11.6-4.6V36.5c1.1,0.7,2.4,1.3,4,1.8v14.3h2.8V39.1
		c3.8,0.9,8.4,1.3,13,1.3c4.1,0,8.1-0.4,11.7-1.1v16.1h2.8V38.7c2.1-0.6,3.9-1.3,5.3-2.2v20.1C51.4,58.7,43.5,61.8,31.7,61.8z"/>
	<path class="cls-5" d="M29.8,22.5c-2.6,3.5-1.4,11-1.3,11.8l2.8-0.5C31,32,30.4,26.3,32,24.2L29.8,22.5z"/>
</g>
</svg>
